<svg xmlns="http://www.w3.org/2000/svg" viewBox="0 0 1200 720" role="img" aria-labelledby="title desc">
  <title id="title">Forecast Studio overview screen</title>
  <desc id="desc">Forecast charts with uncertainty bands and scenario toggles.</desc>
  <defs>
    <linearGradient id="bg" x1="0%" y1="0%" x2="100%" y2="100%">
      <stop offset="0%" stop-color="#0f172a"/>
      <stop offset="100%" stop-color="#0ea5e9"/>
    </linearGradient>
  </defs>
  <rect width="1200" height="720" fill="url(#bg)"/>
  <g transform="translate(140,120)">
    <rect width="920" height="480" rx="28" fill="rgba(15,23,42,0.7)" stroke="rgba(255,255,255,0.08)" stroke-width="2"/>
    <rect x="40" y="40" width="320" height="120" rx="18" fill="rgba(255,255,255,0.08)"/>
    <rect x="40" y="190" width="840" height="220" rx="26" fill="rgba(14,165,233,0.12)"/>
    <rect x="560" y="40" width="320" height="120" rx="18" fill="rgba(255,255,255,0.08)"/>
  </g>
  <g transform="translate(200,220)" stroke-width="6" fill="none" stroke-linecap="round">
    <path d="M0,120 C80,80 160,60 240,80 C320,100 400,180 480,200 C560,220 640,200 720,140" stroke="rgba(14,165,233,0.9)"/>
    <path d="M0,180 C80,140 160,120 240,140 C320,160 400,220 480,240 C560,260 640,240 720,200" stroke="rgba(236,72,153,0.9)"/>
  </g>
  <g transform="translate(640,180)">
    <rect width="160" height="12" rx="6" fill="rgba(255,255,255,0.5)"/>
    <rect y="28" width="120" height="8" rx="4" fill="rgba(255,255,255,0.3)"/>
    <rect y="48" width="140" height="8" rx="4" fill="rgba(255,255,255,0.2)"/>
  </g>
</svg>
